# xmcd
#
# Track frame offsets:
#	150
#	20722
#	42208
#	62756
#	75781
#	104287
#	122609
#	140689
#	157948
#	175399
#	196265
#	210756
#	232678
#	250668
#
# Disc length: 3550 seconds
#
# Revision: 0
# Processed by: cddbd v1.5.2PL0 Copyright (c) Steve Scherf et al.
# Submitted via: EasyCDDAExtractor 2010.6.0.0
#
DISCID=a50ddc0e
DTITLE=Pino Daniele - Tutta N'Ata Storia - Vai Mo' - Live In Napoli
DYEAR=2013
DGENRE=Italiana
TTITLE0=A Testa In Giu'
TTITLE1=Quanno Chiove
TTITLE2=A Me Me Piace 'O Blues
TTITLE3=Terra Mia(feat. Avion Travel)
TTITLE4=Yes I Know My Way
TTITLE5=Ma Che Ho
TTITLE6=Io Vivo Come Te
TTITLE7=Chi Tene 'O Mare
TTITLE8=Anema e Core
TTITLE9=Dubbi Non Ho
TTITLE10=Se Mi Vuoi(feat. Irene Grandi)
TTITLE11=Vento Di Passione(feat. Giorgia)
TTITLE12=Non Si Torna Indietro (Inedito)
TTITLE13=Another Dimension (Inedito)
EXTD=
EXTT0=
EXTT1=
EXTT2=
EXTT3=
EXTT4=
EXTT5=
EXTT6=
EXTT7=
EXTT8=
EXTT9=
EXTT10=
EXTT11=
EXTT12=
EXTT13=
PLAYORDER=
